<svg xmlns="http://www.w3.org/2000/svg" version="1.1" xmlns:xlink="http://www.w3.org/1999/xlink" xmlns:svgjs="http://svgjs.dev/svgjs" width="1440" height="560" preserveAspectRatio="none" viewBox="0 0 1440 560"><g mask="url(&quot;#SvgjsMask1000&quot;)" fill="none"><rect width="1440" height="560" x="0" y="0" fill="#0e2a47"></rect><g transform="translate(0, 0)" stroke-linecap="round"><path d="M260 253.67 L260 306.33" stroke-width="15" stroke="#dd1133"></path><path d="M280 214.26 L280 345.74" stroke-width="15" stroke="#dd1133"></path><path d="M300 203.87 L300 356.13" stroke-width="15" stroke="#3a7cc3"></path><path d="M320 220.29 L320 339.71" stroke-width="15" stroke="#3a7cc3"></path><path d="M340 219.01 L340 340.99" stroke-width="15" stroke="#dd1133"></path><path d="M360 147.66 L360 412.35" stroke-width="15" stroke="#dd1133"></path><path d="M380 215.67 L380 344.33" stroke-width="15" stroke="#dd1133"></path><path d="M400 138.1 L400 421.9" stroke-width="15" stroke="#dd1133"></path><path d="M420 131.8 L420 428.2" stroke-width="15" stroke="#3a7cc3"></path><path d="M440 176.78 L440 383.22" stroke-width="15" stroke="#3a7cc3"></path><path d="M460 214.31 L460 345.69" stroke-width="15" stroke="#dd1133"></path><path d="M480 148.09 L480 411.91" stroke-width="15" stroke="#dd1133"></path><path d="M500 233.94 L500 326.06" stroke-width="15" stroke="#3a7cc3"></path><path d="M520 243.09 L520 316.92" stroke-width="15" stroke="#3a7cc3"></path><path d="M540 239.34 L540 320.66" stroke-width="15" stroke="#3a7cc3"></path><path d="M560 110.63 L560 449.37" stroke-width="15" stroke="#dd1133"></path><path d="M580 260.88 L580 299.13" stroke-width="15" stroke="#3a7cc3"></path><path d="M600 202.95 L600 357.05" stroke-width="15" stroke="#dd1133"></path><path d="M620 108.11 L620 451.89" stroke-width="15" stroke="#dd1133"></path><path d="M640 109.16 L640 450.85" stroke-width="15" stroke="#3a7cc3"></path><path d="M660 215.03 L660 344.97" stroke-width="15" stroke="#3a7cc3"></path><path d="M680 139.78 L680 420.22" stroke-width="15" stroke="#dd1133"></path><path d="M700 130.86 L700 429.14" stroke-width="15" stroke="#3a7cc3"></path><path d="M720 206.54 L720 353.46" stroke-width="15" stroke="#dd1133"></path><path d="M740 144.94 L740 415.06" stroke-width="15" stroke="#3a7cc3"></path><path d="M760 233.35 L760 326.65" stroke-width="15" stroke="#dd1133"></path><path d="M780 237.91 L780 322.1" stroke-width="15" stroke="#3a7cc3"></path><path d="M800 116.52 L800 443.48" stroke-width="15" stroke="#3a7cc3"></path><path d="M820 253.42 L820 306.58" stroke-width="15" stroke="#3a7cc3"></path><path d="M840 237.6 L840 322.4" stroke-width="15" stroke="#3a7cc3"></path><path d="M860 170.38 L860 389.62" stroke-width="15" stroke="#3a7cc3"></path><path d="M880 235.4 L880 324.61" stroke-width="15" stroke="#3a7cc3"></path><path d="M900 227.03 L900 332.97" stroke-width="15" stroke="#dd1133"></path><path d="M920 165.96 L920 394.04" stroke-width="15" stroke="#3a7cc3"></path><path d="M940 229.62 L940 330.38" stroke-width="15" stroke="#dd1133"></path><path d="M960 118.96 L960 441.04" stroke-width="15" stroke="#dd1133"></path><path d="M980 199.04 L980 360.96" stroke-width="15" stroke="#dd1133"></path><path d="M1000 214.43 L1000 345.57" stroke-width="15" stroke="#dd1133"></path><path d="M1020 219.2 L1020 340.8" stroke-width="15" stroke="#dd1133"></path><path d="M1040 121.78 L1040 438.23" stroke-width="15" stroke="#dd1133"></path><path d="M1060 129.13 L1060 430.87" stroke-width="15" stroke="#3a7cc3"></path><path d="M1080 106.69 L1080 453.31" stroke-width="15" stroke="#3a7cc3"></path><path d="M1100 167.32 L1100 392.68" stroke-width="15" stroke="#3a7cc3"></path><path d="M1120 239.46 L1120 320.54" stroke-width="15" stroke="#3a7cc3"></path><path d="M1140 260.98 L1140 299.02" stroke-width="15" stroke="#3a7cc3"></path><path d="M1160 222.76 L1160 337.24" stroke-width="15" stroke="#3a7cc3"></path><path d="M1180 190.96 L1180 369.04" stroke-width="15" stroke="#3a7cc3"></path></g></g><defs><mask id="SvgjsMask1000"><rect width="1440" height="560" fill="#ffffff"></rect></mask></defs></svg>